<svg width="24" height="22" viewBox="0 0 24 22" fill="none" xmlns="http://www.w3.org/2000/svg">
<g id="heart">
<mask id="path-1-inside-1_173_165" fill="white">
<path fill-rule="evenodd" clip-rule="evenodd" d="M7.60458 16.9837C7.59838 16.9776 7.59219 16.9714 7.58601 16.9652L2.79297 12.1722C0.145852 9.52507 0.145853 5.23324 2.79298 2.58611C5.44009 -0.0609976 9.7319 -0.0610096 12.379 2.58608L12.3791 2.58604C15.0262 -0.0610775 19.318 -0.0610765 21.9651 2.58605C24.6123 5.23317 24.6123 9.525 21.9651 12.1721L17.1902 16.947C17.1842 16.9531 17.1782 16.9592 17.1721 16.9652C17.166 16.9713 17.16 16.9773 17.1539 16.9834L12.3791 21.7582L7.60458 16.9837Z"/>
</mask>
<path fill-rule="evenodd" clip-rule="evenodd" d="M7.60458 16.9837C7.59838 16.9776 7.59219 16.9714 7.58601 16.9652L2.79297 12.1722C0.145852 9.52507 0.145853 5.23324 2.79298 2.58611C5.44009 -0.0609976 9.7319 -0.0610096 12.379 2.58608L12.3791 2.58604C15.0262 -0.0610775 19.318 -0.0610765 21.9651 2.58605C24.6123 5.23317 24.6123 9.525 21.9651 12.1721L17.1902 16.947C17.1842 16.9531 17.1782 16.9592 17.1721 16.9652C17.166 16.9713 17.16 16.9773 17.1539 16.9834L12.3791 21.7582L7.60458 16.9837Z" fill="#FF7D7D"/>
<path d="M7.60458 16.9837L9.0188 15.5695L9.01353 15.5643L7.60458 16.9837ZM12.379 2.58608L10.9648 4.0003L12.379 5.4145L13.7932 4.00029L12.379 2.58608ZM12.3791 2.58604L10.9648 1.17183L12.3791 2.58604ZM17.1902 16.947L15.776 15.5328L15.7707 15.5382L17.1902 16.947ZM17.1539 16.9834L15.745 15.5638L15.7397 15.5692L17.1539 16.9834ZM12.3791 21.7582L10.9648 23.1724L12.3791 24.5866L13.7933 23.1724L12.3791 21.7582ZM9.01353 15.5643C9.00899 15.5598 9.00456 15.5553 9.00023 15.551L6.1718 18.3794C6.17983 18.3875 6.18778 18.3954 6.19563 18.4032L9.01353 15.5643ZM9.00023 15.551L4.20719 10.758L1.37876 13.5864L6.1718 18.3794L9.00023 15.551ZM4.20719 10.758C2.34111 8.89191 2.34111 5.8664 4.20719 4.00033L1.37876 1.1719C-2.04941 4.60007 -2.04941 10.1582 1.37876 13.5864L4.20719 10.758ZM4.20719 4.00033C6.07326 2.13426 9.09874 2.13425 10.9648 4.0003L13.7932 1.17186C10.3651 -2.25627 4.80692 -2.25626 1.37876 1.1719L4.20719 4.00033ZM13.7932 4.00029L13.7933 4.00026L10.9648 1.17183L10.9648 1.17187L13.7932 4.00029ZM13.7933 4.00026C15.6593 2.13418 18.6848 2.13419 20.5509 4.00026L23.3793 1.17183C19.9512 -2.25634 14.393 -2.25634 10.9648 1.17183L13.7933 4.00026ZM20.5509 4.00026C22.417 5.86633 22.417 8.89184 20.5509 10.7579L23.3793 13.5863C26.8075 10.1582 26.8075 4.6 23.3793 1.17183L20.5509 4.00026ZM20.5509 10.7579L15.776 15.5328L18.6044 18.3612L23.3793 13.5863L20.5509 10.7579ZM15.7707 15.5382C15.7665 15.5424 15.7623 15.5466 15.7579 15.551L18.5863 18.3794C18.594 18.3717 18.6019 18.3639 18.6098 18.3559L15.7707 15.5382ZM15.7579 15.551C15.7535 15.5554 15.7492 15.5597 15.745 15.5638L18.5627 18.4029C18.5707 18.395 18.5786 18.3872 18.5863 18.3794L15.7579 15.551ZM15.7397 15.5692L10.9648 20.344L13.7933 23.1724L18.5681 18.3976L15.7397 15.5692ZM13.7933 20.344L9.01879 15.5695L6.19037 18.3979L10.9648 23.1724L13.7933 20.344Z" fill="#FF7D7D" mask="url(#path-1-inside-1_173_165)"/>
</g>
</svg>
