<svg width="44" height="46" viewBox="0 0 44 46" fill="none" xmlns="http://www.w3.org/2000/svg">
<g id="icon_search" clip-path="url(#clip0_174_367)">
<g id="Group">
<g id="Group_2">
<path id="Vector" d="M0 19.1431C0 29.7013 8.21622 38.2815 18.3063 38.2815C22.955 38.2815 27.2072 36.4543 30.4414 33.4592L42.1081 45.6562C42.3243 45.8823 42.6036 45.9953 42.8919 45.9953C43.1802 45.9953 43.4595 45.8823 43.6757 45.6562C44.1081 45.2041 44.1081 44.4789 43.6757 44.0268L32 31.8298C34.8649 28.4486 36.6126 24.0125 36.6126 19.1431C36.6126 8.58496 28.3964 0.00469971 18.3063 0.00469971C8.21622 0.00469971 0 8.58496 0 19.1431ZM34.4054 19.1431C34.4054 28.4203 27.1802 35.974 18.3063 35.974C9.43243 35.974 2.20721 28.4203 2.20721 19.1431C2.20721 9.86588 9.43243 2.31223 18.3063 2.31223C27.1802 2.31223 34.4054 9.85646 34.4054 19.1431Z" fill="black"/>
</g>
</g>
</g>
<defs>
<clipPath id="clip0_174_367">
<rect width="44" height="46" fill="white"/>
</clipPath>
</defs>
</svg>
