<svg width="284" height="302" viewBox="0 0 284 302" fill="none" xmlns="http://www.w3.org/2000/svg">
<g clip-path="url(#clip0_146_41)">
<path d="M0 130.24L65.45 64.79V164.98L0 202.72V130.24ZM27.3 172.94L38.3 165.81V106.35L27.3 116.61V172.94ZM103.11 91.32L98.5 94.85V145.91L71.37 161.55V58.87L98.51 31.74C98.51 46.4067 98.51 61.0733 98.51 75.74L103.12 71.89V27.13L130.25 -3.8147e-06V127.61L103.12 143.26L103.11 91.32Z" fill="#FF7D7D"/>
<path d="M147.51 103.1L284 191.1V203.21L147.51 124.86V103.1ZM275.78 169.93L155.57 81.81V1.81L275.78 122.02V134.71L182.86 48.36V81.93L275.78 156.83V169.93Z" fill="#FF7D7D"/>
<path d="M0 225.83L65.45 196.91V256.36L0 268.84V225.83ZM130.41 301.49H0V272.02L27.3 267.33V287.64L130.41 280.45V301.49ZM26.47 249.81L39.14 246.55V223.01L26.47 227.74V249.81ZM103.27 224.63L98.5 225.96V268.87L71.37 272.16V194.29L98.5 182.29V206.88L103.27 205.21V180.21L130.41 168.21V265.03L103.27 268.31V224.63Z" fill="#FF7D7D"/>
<path d="M230.56 207.96L251.11 216.55V211.32L278.41 223.38V280.14L251.11 276.84V249.94L235 245.87V259.39L231.22 258.67C226.309 257.762 221.47 256.502 216.74 254.9C212.695 253.525 208.769 251.823 205 249.81C201.803 248.123 198.787 246.112 196 243.81C193.783 241.994 191.795 239.916 190.08 237.62C188.337 239.115 186.365 240.32 184.24 241.19C181.395 242.391 178.412 243.238 175.36 243.71C171.476 244.333 167.543 244.611 163.61 244.54C158.747 244.453 153.901 243.935 149.13 242.99L145.35 242.27V220.64L149.13 221.64C153.028 222.756 157.079 223.239 161.13 223.07C164.081 222.951 166.982 222.272 169.68 221.07C171.774 220.129 173.567 218.627 174.86 216.73C175.991 215.022 176.593 213.018 176.59 210.97V178.38L203.72 190.38V219.74C203.803 221.856 204.368 223.925 205.37 225.79C206.628 228.251 208.322 230.464 210.37 232.32C212.907 234.646 215.726 236.645 218.76 238.27C222.489 240.255 226.435 241.802 230.52 242.88V228.88L251.11 235.55V230.95L230.56 223.84V207.96ZM278.41 301.49H148V248.62L175.3 253.32V281.96L278.41 289.16V301.49Z" fill="#FF7D7D"/>
</g>
<defs>
<clipPath id="clip0_146_41">
<rect width="284" height="301.5" fill="white"/>
</clipPath>
</defs>
</svg>
